<svg xmlns="http://www.w3.org/2000/svg" width="87.361" height="115.688" viewBox="0 0 87.361 115.688">
  <g id="Group_10" data-name="Group 10" transform="matrix(0.951, 0.309, -0.309, 0.951, -60.21, -1095.149)">
    <path id="Path_3" data-name="Path 3" d="M425.389,1016.181a2.908,2.908,0,0,0-3.3,1.537,26.247,26.247,0,0,0-2.2,4.539,57.124,57.124,0,0,0-1.659,31.839c2.611,11.344,9.055,19.993,19.675,24.865a93.873,93.873,0,0,0,42.289,8.677c1.374-.039,2.745-.23,4.117-.35l-.045-.557c-1.072.052-2.144.134-3.216.152-13.368.225-26.056-3-38.391-7.789a32.483,32.483,0,0,1-17.959-16.029c-7.136-14.437-6.68-29.236-1.132-44.072A16.3,16.3,0,0,1,425.389,1016.181Z" fill="#41854d"/>
    <path id="Path_4" data-name="Path 4" d="M491.2,1133.29c1.141,0,1.753.186,1.963-.027,10.275-10.376,20.516-20.786,30.907-31.343a9.131,9.131,0,0,0-1.937-.4c-6.387.072-12.326-1.849-18.18-4.094-4.607-1.767-9.158-3.68-13.762-5.457a14.822,14.822,0,0,0-2.848-.509l-.169.787c10.568,4.368,20.768,9.8,32.842,10.649-.682.647-1.07,1.03-1.474,1.4a288.331,288.331,0,0,0-25.492,25.962A24.8,24.8,0,0,0,491.2,1133.29Z" transform="translate(-21.874 -23.391)" fill="#41854d"/>
    <path id="Path_5" data-name="Path 5" d="M425.389,1016.181a16.3,16.3,0,0,0-1.821,2.812c-5.548,14.835-6,29.635,1.132,44.072a32.483,32.483,0,0,0,17.959,16.029c12.335,4.794,25.023,8.014,38.391,7.789,1.072-.018,2.144-.1,3.216-.152l.045.557c-1.372.12-2.742.311-4.117.35a93.873,93.873,0,0,1-42.289-8.677c-10.619-4.873-17.063-13.522-19.675-24.865a57.124,57.124,0,0,1,1.659-31.839,26.247,26.247,0,0,1,2.2-4.539A2.908,2.908,0,0,1,425.389,1016.181Z" fill="#41854d"/>
    <path id="Path_6" data-name="Path 6" d="M491.2,1133.29a24.8,24.8,0,0,1,1.85-3.038,288.331,288.331,0,0,1,25.492-25.962c.4-.367.792-.75,1.474-1.4-12.074-.852-22.275-6.281-32.842-10.649l.169-.787a14.822,14.822,0,0,1,2.848.509c4.6,1.776,9.155,3.689,13.762,5.457,5.854,2.245,11.792,4.166,18.18,4.094a9.131,9.131,0,0,1,1.937.4c-10.391,10.557-20.632,20.967-30.907,31.343C492.958,1133.475,492.346,1133.29,491.2,1133.29Z" transform="translate(-21.874 -23.391)" fill="#41854d"/>
  </g>
</svg>
