<svg xmlns="http://www.w3.org/2000/svg" width="17" height="17" viewBox="0 0 17 17">
  <g id="Group_12" data-name="Group 12" transform="translate(-468.25 -84.438)">
    <path id="Path_47" data-name="Path 47" d="M482.295,94.1a3.82,3.82,0,0,1,2.325,1.759,3.958,3.958,0,0,1,.63,2.158v.83a2.61,2.61,0,0,1-2.59,2.591H470.84a2.61,2.61,0,0,1-2.59-2.591v-.83a4.12,4.12,0,0,1,.63-2.19,3.851,3.851,0,0,1,2.325-1.727l.7-.2a5.807,5.807,0,0,1-1.129-3.486,5.977,5.977,0,1,1,11.954,0A5.807,5.807,0,0,1,481.6,93.9Zm1.361,4.747v-.83a2.493,2.493,0,0,0-1.793-2.39l-1.527-.432a5.974,5.974,0,0,1-7.171,0l-1.527.432a2.492,2.492,0,0,0-1.794,2.39v.83a.967.967,0,0,0,1,1H482.66a.967.967,0,0,0,1-1ZM476.75,86.032a4.181,4.181,0,0,0-2.192.6,4.59,4.59,0,0,0-1.594,1.594,4.316,4.316,0,0,0,0,4.383,4.566,4.566,0,0,0,1.594,1.594,4.316,4.316,0,0,0,4.383,0,4.566,4.566,0,0,0,1.594-1.594,4.316,4.316,0,0,0,0-4.383,4.59,4.59,0,0,0-1.594-1.594A4.185,4.185,0,0,0,476.75,86.032Z" transform="translate(0 0)" fill="#172e56"/>
  </g>
</svg>
